HIERARCHY
ROOT Hips
{
    OFFSET 0.000000 0.000000 0.000000
    CHANNELS 6 Xposition Yposition Zposition Zrotation Xrotation Yrotation
    JOINT Spine
    {
        OFFSET -0.000000 14.517291 0.000000
        CHANNELS 3 Zrotation Xrotation Yrotation
        JOINT Spine1
        {
            OFFSET -0.000000 37.558300 0.000000
            CHANNELS 3 Zrotation Xrotation Yrotation
            JOINT Neck
            {
                OFFSET -0.000000 37.404057 3.400369
                CHANNELS 3 Zrotation Xrotation Yrotation
                JOINT Head
                {
                    OFFSET -0.000000 24.785618 -3.540803
                    CHANNELS 3 Zrotation Xrotation Yrotation
                    End Site
                    {
                        OFFSET -0.000000 35.408028 0.000000
                    }
                }
            }
            JOINT LeftShoulder
            {
                OFFSET 6.992933 33.973492 -0.192664
                CHANNELS 3 Zrotation Xrotation Yrotation
                JOINT LeftArm
                {
                    OFFSET 21.527611 0.000000 0.000000
                    CHANNELS 3 Zrotation Xrotation Yrotation
                    JOINT LeftForeArm
                    {
                        OFFSET 56.353916 0.000000 0.000000
                        CHANNELS 3 Zrotation Xrotation Yrotation
                        JOINT LeftHand
                        {
                            OFFSET 47.774071 0.000000 0.000000
                            CHANNELS 3 Zrotation Xrotation Yrotation
                            End Site
                            {
                                OFFSET 26.556021 0.000000 0.000000
                            }
                        }
                    }
                }
            }
            JOINT RightShoulder
            {
                OFFSET -7.065357 33.973492 -0.192664
                CHANNELS 3 Zrotation Xrotation Yrotation
                JOINT RightArm
                {
                    OFFSET -21.527611 0.000000 0.000000
                    CHANNELS 3 Zrotation Xrotation Yrotation
                    JOINT RightForeArm
                    {
                        OFFSET -56.353916 0.000000 0.000000
                        CHANNELS 3 Zrotation Xrotation Yrotation
                        JOINT RightHand
                        {
                            OFFSET -47.774071 0.000000 0.000000
                            CHANNELS 3 Zrotation Xrotation Yrotation
                            End Site
                            {
                                OFFSET -26.556021 0.000000 0.000000
                            }
                        }
                    }
                }
            }
        }
    }
    JOINT LeftUpLeg
    {
        OFFSET 17.704014 0.000000 0.000000
        CHANNELS 3 Zrotation Xrotation Yrotation
        JOINT LeftLeg
        {
            OFFSET -0.000000 -81.181816 0.000000
            CHANNELS 3 Zrotation Xrotation Yrotation
            JOINT LeftFoot
            {
                OFFSET -0.000000 -62.821102 0.000000
                CHANNELS 3 Zrotation Xrotation Yrotation
                JOINT LeftToeBase
                {
                    OFFSET -0.000000 -11.507608 26.556021
                    CHANNELS 3 Zrotation Xrotation Yrotation
                    End Site
                    {
                        OFFSET -0.000000 0.000000 7.081605
                    }
                }
            }
        }
    }
    JOINT RightUpLeg
    {
        OFFSET -17.704014 0.000000 0.000000
        CHANNELS 3 Zrotation Xrotation Yrotation
        JOINT RightLeg
        {
            OFFSET -0.000000 -81.181816 0.000000
            CHANNELS 3 Zrotation Xrotation Yrotation
            JOINT RightFoot
            {
                OFFSET -0.000000 -62.821102 0.000000
                CHANNELS 3 Zrotation Xrotation Yrotation
                JOINT RightToeBase
                {
                    OFFSET -0.000000 -11.507608 26.556021
                    CHANNELS 3 Zrotation Xrotation Yrotation
                    End Site
                    {
                        OFFSET -0.000000 0.000000 7.081605
                    }
                }
            }
        }
    }
}
MOTION
Frames:    10
Frame Time:    0.008333
-27.896278    147.758331    -75.058052    -5.088142    -2.599394    37.120182    1.019124    0.167470    -2.870050    -2.594301    2.777384    -0.893720    6.243060    4.331653    -14.796893    11.820844    -1.191893    -14.327420    5.556585    8.245110    -18.688791    -26.397343    23.950663    -56.745663    0.453316    -12.132154    -100.037201    11.277568    -12.657406    -10.888770    -7.964099    -1.127341    -2.343526    25.947561    -24.755089    55.308235    -19.390547    -12.467577    63.903957    -3.311208    -1.389911    36.122040    4.879684    2.965777    2.511565    -13.629971    45.115845    -20.037457    21.526825    -30.917826    37.299591    0.000000    0.000000    0.000000    5.224924    -32.319145    -4.348073    20.607342    39.783474    -14.843837    -13.108169    -10.705051    -20.169437    0.000000    0.000000    0.000000    
-27.938684    147.742157    -75.113853    -5.041065    -2.584637    37.161045    0.998403    0.164601    -2.864871    -2.632229    2.761552    -0.891447    6.234664    4.329005    -14.799096    11.808582    -1.198052    -14.330156    5.556034    8.240549    -18.667692    -26.391376    23.896578    -56.784451    0.473308    -12.076284    -100.052139    11.338779    -12.588022    -10.930821    -7.982732    -1.138227    -2.342876    25.924889    -24.774683    55.281227    -19.364216    -12.477633    63.890308    -3.343755    -1.429455    36.067524    4.849538    2.881682    3.433360    -12.765538    45.479927    -21.286318    21.543770    -30.880718    37.288261    0.000000    0.000000    0.000000    5.133205    -32.336315    -4.414781    20.658016    39.798401    -14.876816    -13.165174    -10.692433    -20.157640    0.000000    0.000000    0.000000    
-27.975563    147.725342    -75.167557    -5.002696    -2.573200    37.187263    0.987579    0.150830    -2.849041    -2.658707    2.761658    -0.885593    6.170156    4.315110    -14.805925    11.864557    -1.192303    -14.323145    5.527160    8.219391    -18.670931    -26.390303    23.879360    -56.773617    0.516161    -12.093041    -100.069519    11.222678    -12.548809    -10.982747    -8.031016    -1.153396    -2.352293    25.926044    -24.773430    55.261089    -19.335140    -12.527243    63.891731    -3.320390    -1.488551    35.989990    4.813408    2.895505    3.438047    -12.754651    45.433296    -21.353489    21.623835    -30.877829    37.352806    0.000000    0.000000    0.000000    5.076324    -32.350323    -4.446648    20.678152    39.799641    -14.900177    -13.212442    -10.690220    -20.158735    0.000000    0.000000    0.000000    
-28.011734    147.704956    -75.219551    -4.977166    -2.560469    37.206203    0.980894    0.117749    -2.826813    -2.679631    2.788932    -0.877160    6.126345    4.278577    -14.799970    11.890096    -1.202364    -14.309246    5.498963    8.188340    -18.669767    -26.384359    23.875917    -56.787342    0.563888    -12.134432    -100.065704    11.168444    -12.533401    -11.022917    -8.081445    -1.180513    -2.377111    25.950050    -24.782785    55.259445    -19.291235    -12.559762    63.894108    -3.281637    -1.537237    35.991589    4.788136    2.886943    3.399179    -12.798342    45.407154    -21.335932    21.688131    -30.884455    37.401962    0.000000    0.000000    0.000000    5.045539    -32.373913    -4.473619    20.668028    39.812370    -14.881631    -13.262363    -10.691312    -20.173214    0.000000    0.000000    0.000000    
-28.050323    147.687286    -75.260376    -4.957835    -2.567331    37.222107    0.993631    0.105815    -2.815155    -2.717559    2.798071    -0.872189    6.106865    4.270444    -14.801044    11.913048    -1.220493    -14.303350    5.481115    8.185709    -18.643139    -26.389410    23.857307    -56.816391    0.582891    -12.151056    -100.055573    11.217360    -12.532969    -11.025456    -8.095150    -1.189142    -2.361531    25.938219    -24.795515    55.233452    -19.278067    -12.607709    63.897858    -3.265276    -1.587172    35.942501    4.782633    2.886183    3.320736    -12.872896    45.389099    -21.288784    21.765657    -30.881334    37.469231    0.000000    0.000000    0.000000    5.053351    -32.381775    -4.474884    20.633871    39.818630    -14.861676    -13.324006    -10.678567    -20.205187    0.000000    0.000000    0.000000    
-28.086042    147.670990    -75.293007    -4.944593    -2.589265    37.225857    1.015020    0.102172    -2.794192    -2.734717    2.811661    -0.864401    6.083074    4.286530    -14.805583    11.931079    -1.271280    -14.296656    5.441751    8.188391    -18.622454    -26.418449    23.812469    -56.826042    0.572880    -12.131977    -100.051384    11.232123    -12.527712    -11.031257    -8.141856    -1.184916    -2.353993    25.955254    -24.814661    55.212055    -19.281239    -12.641411    63.913982    -3.219925    -1.600305    35.923519    4.789996    2.883116    3.345712    -12.852878    45.428146    -21.331810    21.814907    -30.890549    37.498974    0.000000    0.000000    0.000000    5.097745    -32.374302    -4.422554    20.591230    39.808617    -14.863816    -13.336313    -10.682292    -20.235813    0.000000    0.000000    0.000000    
-28.122150    147.659256    -75.322594    -4.947058    -2.616386    37.229446    1.043953    0.093825    -2.779757    -2.752524    2.830198    -0.858721    6.082682    4.312891    -14.808490    11.945619    -1.333980    -14.289545    5.424659    8.214996    -18.603163    -26.467470    23.740307    -56.847439    0.550455    -12.103273    -100.035095    11.240066    -12.524437    -11.014813    -8.147715    -1.188727    -2.343042    25.942902    -24.829981    55.195961    -19.276354    -12.687258    63.930855    -3.189249    -1.635291    35.877098    4.811571    2.833425    3.643459    -12.566972    45.612923    -21.749664    21.806244    -30.911680    37.538570    0.000000    0.000000    0.000000    5.168507    -32.367313    -4.355132    20.534077    39.790150    -14.819977    -13.377782    -10.655169    -20.303627    0.000000    0.000000    0.000000    
-28.157377    147.650726    -75.342224    -4.944771    -2.653387    37.218330    1.067179    0.106937    -2.764159    -2.764616    2.839404    -0.853025    6.105071    4.323338    -14.804812    11.925487    -1.384686    -14.285421    5.410307    8.234514    -18.580391    -26.514420    23.713823    -56.860653    0.560632    -12.125275    -100.011604    11.266995    -12.534928    -10.989069    -8.155084    -1.192911    -2.321981    25.952362    -24.844995    55.174953    -19.254419    -12.748448    63.976784    -3.090054    -1.669111    35.878063    4.836202    2.840620    3.666026    -12.537202    45.653591    -21.801502    21.826843    -30.930119    37.566132    0.000000    0.000000    0.000000    5.258060    -32.353020    -4.255385    20.474495    39.781139    -14.796551    -13.400116    -10.645628    -20.381727    0.000000    0.000000    0.000000    
-28.190475    147.644669    -75.361290    -4.951074    -2.688474    37.216518    1.092279    0.116720    -2.753955    -2.767147    2.850361    -0.849217    6.111639    4.321931    -14.792203    11.926453    -1.427531    -14.268457    5.391893    8.246085    -18.560066    -26.547176    23.715448    -56.878559    0.560504    -12.181355    -99.997978    11.276334    -12.585258    -10.919513    -8.161179    -1.192608    -2.328260    25.952480    -24.830410    55.186417    -19.297642    -12.811963    63.980541    -3.069756    -1.699243    35.900440    4.859547    2.831808    3.702564    -12.479871    45.713184    -21.859655    21.811310    -30.979530    37.584270    0.000000    0.000000    0.000000    5.350879    -32.341881    -4.146549    20.430422    39.754547    -14.816910    -13.436791    -10.618813    -20.446571    0.000000    0.000000    0.000000    
-28.221596    147.640259    -75.376907    -4.953972    -2.722414    37.211311    1.107782    0.135639    -2.744568    -2.764734    2.849154    -0.846082    6.138436    4.328947    -14.778272    11.904136    -1.474103    -14.255052    5.379252    8.264015    -18.543663    -26.596460    23.704275    -56.887520    0.539987    -12.203725    -99.972969    11.321749    -12.631367    -10.869647    -8.149007    -1.188147    -2.324154    25.957067    -24.843754    55.194492    -19.327375    -12.822711    63.997833    -3.075235    -1.689201    35.915913    4.876561    2.825437    3.753181    -12.403224    45.773838    -21.909706    21.787651    -31.027451    37.575958    0.000000    0.000000    0.000000    5.445929    -32.328407    -4.009953    20.388557    39.723186    -14.834913    -13.463739    -10.595933    -20.518848    0.000000    0.000000    0.000000    
